<svg id="Layer_1" data-name="Layer 1" xmlns="http://www.w3.org/2000/svg" viewBox="0 0 609 520.32"><defs><style>.cls-1{fill:none;stroke:#000;stroke-miterlimit:10;stroke-width:13px;}</style></defs><path d="M316,407c29.7,0,57.44,6.92,78.1,19.49C412.74,437.83,423,452.21,423,467s-10.26,29.17-28.9,40.51C373.44,520.08,345.7,527,316,527s-57.44-6.92-78.1-19.49C219.26,496.17,209,481.79,209,467s10.26-29.17,28.9-40.51C258.56,413.92,286.3,407,316,407m0-13c-66.27,0-120,32.68-120,73s53.73,73,120,73,120-32.68,120-73-53.73-73-120-73Z" transform="translate(-196 -288.68)"/><path d="M685,407c29.7,0,57.44,6.92,78.1,19.49C781.74,437.83,792,452.21,792,467s-10.26,29.17-28.9,40.51C742.44,520.08,714.7,527,685,527s-57.44-6.92-78.1-19.49C588.26,496.17,578,481.79,578,467s10.26-29.17,28.9-40.51C627.56,413.92,655.3,407,685,407m0-13c-66.27,0-120,32.68-120,73s53.73,73,120,73,120-32.68,120-73-53.73-73-120-73Z" transform="translate(-196 -288.68)"/><circle class="cls-1" cx="269.5" cy="333.82" r="10"/><circle class="cls-1" cx="339.5" cy="333.82" r="10"/><line class="cls-1" x1="45.5" y1="39.82" x2="252.5" y2="85.82"/><line class="cls-1" x1="369.5" y1="95.82" x2="550.5" y2="5.82"/><rect class="cls-1" x="204.5" y="455.82" width="214" height="27"/><line class="cls-1" x1="249" y1="513.82" x2="359" y2="512.82"/></svg>